<?xml version="1.0" encoding="UTF-8" standalone="no"?>
<!DOCTYPE svg PUBLIC "-//W3C//DTD SVG 1.1//EN" "http://www.w3.org/Graphics/SVG/1.1/DTD/svg11.dtd">
<svg width="100%" height="100%" viewBox="0 0 512 512" version="1.1" xmlns="http://www.w3.org/2000/svg" xmlns:xlink="http://www.w3.org/1999/xlink" xml:space="preserve" xmlns:serif="http://www.serif.com/" style="fill-rule:evenodd;clip-rule:evenodd;">
    <circle id="svg_12" cx="256" cy="256" r="194.3" style="fill:rgb(142,34,34);fill-opacity:0;stroke:rgb(27,0,0);stroke-width:7.5px;"/>
    <path id="svg_14" d="M177.889,148.566C199.701,132.917 226.432,123.7 255.3,123.7C284.1,123.7 310.775,132.874 332.558,148.456C291.292,159.215 274.38,173.26 272.9,174C266.2,176.5 262.4,190 262.7,189.7C262.443,189.957 261.006,345.665 260.794,389.588C258.972,389.663 257.14,389.7 255.3,389.7C253.494,389.7 251.697,389.664 249.908,389.592C249.704,346.459 248.26,190.126 248,189.701C248.296,190.087 244.497,176.599 237.8,174.1C236.317,173.358 219.339,159.303 177.889,148.566Z" style="fill:rgb(11,0,0);stroke:rgb(15,0,0);stroke-width:1.5px;"/>
    <path id="svg_3" d="M87.2,341C87.2,341 84.7,162.3 84.3,162C84.6,135.3 93.1,138 99.6,137.2C199.3,142.6 235.6,173 237.8,174.1C244.5,176.6 248.3,190.1 248,189.7C248.3,190 250.2,400.8 249.9,400.5C251.5,411.8 243.2,411 242.9,410.7C180.2,361.4 93.5,349 93.2,348.7C87.2,348.2 87.2,341 87.2,341Z" style="fill:rgb(238,238,238);fill-opacity:0;fill-rule:nonzero;stroke:black;stroke-width:10px;"/>
    <path id="svg_4" d="M423.5,341.4C423.5,341.4 426,162.3 426.4,161.9C426.1,135.2 417.6,137.8 411.1,137C311.4,142.4 275.1,172.9 272.9,174C266.2,176.5 262.4,190 262.7,189.7C262.4,190 260.5,401.3 260.8,401C259.2,412.3 267.5,411.6 267.8,411.2C330.5,361.8 417.2,349.4 417.5,349C423.5,348.7 423.5,341.4 423.5,341.4Z" style="fill:rgb(238,238,238);fill-opacity:0;fill-rule:nonzero;stroke:black;stroke-width:10px;"/>
</svg>
